<?xml version="1.0" encoding="iso-8859-1"?>
<!-- Generator: Adobe Illustrator 19.0.0, SVG Export Plug-In . SVG Version: 6.00 Build 0)  -->
<svg version="1.1" id="Layer_1" xmlns="http://www.w3.org/2000/svg" xmlns:xlink="http://www.w3.org/1999/xlink" x="0px" y="0px"
	 viewBox="0 0 512 512" style="enable-background:new 0 0 512 512;" xml:space="preserve">
<g>
	<g>
		<path style="fill:#CDCDCD;" d="M173.598,452.576c-3.584,0-6.985-2.121-8.439-5.632L28.135,117.801
			c-1.947-4.663,0.256-10.011,4.919-11.959c4.654-1.92,10.03,0.256,11.959,4.928l137.024,329.143
			c1.947,4.663-0.256,10.011-4.919,11.959C175.966,452.347,174.778,452.576,173.598,452.576"/>
		<path style="fill:#CDCDCD;" d="M64.116,452.576c-1.179,0-2.368-0.229-3.52-0.704c-4.663-1.947-6.866-7.296-4.919-11.959
			L192.701,110.77c1.938-4.672,7.314-6.839,11.959-4.928c4.663,1.947,6.866,7.296,4.919,11.959L72.555,446.944
			C71.101,450.455,67.7,452.576,64.116,452.576"/>
	</g>
	<path style="fill:#EF705D;" d="M54.857,86.857c0,15.15-12.279,27.429-27.429,27.429S0,102.007,0,86.857
		s12.279-27.429,27.429-27.429S54.857,71.707,54.857,86.857"/>
	<path style="fill:#F26BAA;" d="M512,425.143V96c0,25.243-49.125,45.714-109.714,45.714S292.571,121.243,292.571,96v329.143
		c0,25.243,49.125,45.714,109.714,45.714S512,450.386,512,425.143"/>
	<path style="fill:#CDCDCD;" d="M466.286,32c0,15.15-28.654,27.429-64,27.429s-64-12.279-64-27.429s28.654-27.429,64-27.429
		S466.286,16.85,466.286,32"/>
	<path style="fill:#E6E6E6;" d="M402.286,59.429c-35.346,0-64-12.279-64-27.429v54.857c0,10.103,28.654,18.286,64,18.286
		s64-8.183,64-18.286V32C466.286,47.15,437.632,59.429,402.286,59.429"/>
	<path style="fill:#CF488E;" d="M466.286,58.921v27.931c0,10.103-28.654,18.286-64,18.286s-64-8.183-64-18.286V58.921
		c-27.648,8.302-45.714,21.797-45.714,37.074c0,25.253,49.125,45.714,109.714,45.714S512,121.248,512,95.995
		C512,80.718,493.934,67.223,466.286,58.921"/>
	<path style="fill:#E6E6E6;" d="M402.286,470.857c-23.918,0-45.97-3.227-64-8.64v26.926c0,10.103,28.654,18.286,64,18.286
		s64-8.183,64-18.286v-26.926C448.256,467.63,426.203,470.857,402.286,470.857"/>
	<path style="fill:#EF705D;" d="M182.857,86.857c0,15.15,12.279,27.429,27.429,27.429c15.15,0,27.429-12.279,27.429-27.429
		s-12.279-27.429-27.429-27.429C195.136,59.429,182.857,71.707,182.857,86.857"/>
	<g>
		<path style="fill:#CF488E;" d="M512,101.685L305.911,243.738l9.893,15.387L512,123.427V101.685z"/>
		<path style="fill:#CF488E;" d="M512,176.766l-141.851,85.111l9.417,15.68L512,198.087V176.766z"/>
		<path style="fill:#CF488E;" d="M292.571,195.647v21.211l128-75.145h-18.286c-5.797,0-11.447-0.238-17.006-0.603L292.571,195.647z"
			/>
		<path style="fill:#CF488E;" d="M512,232.252l-77.934,47.963l9.582,15.57L512,253.729V232.252z"/>
		<path style="fill:#CF488E;" d="M292.571,252.044L512,315.559v-19.035l-219.429-63.515V252.044z"/>
		<path style="fill:#CF488E;" d="M358.727,467.093l153.271-87.589v-21.056L333.182,460.629
			C340.899,463.244,349.484,465.42,358.727,467.093"/>
		<path style="fill:#CF488E;" d="M292.571,305.947l148.041,47.899l5.632-17.408l-153.673-49.71V305.947z"/>
		<path style="fill:#CF488E;" d="M292.571,361.455l84.891,28.114l5.751-17.353l-90.642-30.025V361.455z"/>
		<path style="fill:#CF488E;" d="M512,306.286l-4.389-8.018l-215.04,117.925v8.951c0,3.547,1.07,6.994,2.907,10.313L512,316.709
			V306.286z"/>
	</g>
</g>
<g>
</g>
<g>
</g>
<g>
</g>
<g>
</g>
<g>
</g>
<g>
</g>
<g>
</g>
<g>
</g>
<g>
</g>
<g>
</g>
<g>
</g>
<g>
</g>
<g>
</g>
<g>
</g>
<g>
</g>
</svg>
